# xmcd
#
# Track frame offsets: 
#        150
#        9882
#        21158
#        27747
#        36671
#        48807
#        70804
#        87315
#        101042
#        120082
#        121761
#        135258
#        145956
#        160303
#        176371
#        186509
#        189710
#        196129
#        212293
#
# Disc length: 2958 seconds
#
# Revision: 0
# Processed by: cddbd v1.5PL3 Copyright (c) Steve Scherf et al.
# Submitted via: ExactAudioCopy v0.95a5
#
DISCID=fd0b8c13
DTITLE=Johnny Cash - March 31 1986 d2 Wembley
DYEAR=1900
DGENRE=
TTITLE0=If I Were A Carpenter (with June)
TTITLE1=Jackson (with June)
TTITLE2=June Carter Introduction
TTITLE3=Wabash Cannonball (June Carter)
TTITLE4=San Antonio Rose (June Carter)
TTITLE5=Elbow Room (Carter Family with Carlene Carter)
TTITLE6=I'll Be All Smiles Tonight (Anita)
TTITLE7=Foggy Mountain Top (Carter Family)
TTITLE8=Will The Circle Be Unbroken (Carter Family)
TTITLE9=Wildwood Flower jam (Johnny Cash Band)
TTITLE10=Wreck Of The Old '97 (with June)
TTITLE11=A Thing Called Love
TTITLE12=The Ballad Of Ira Hayes
TTITLE13=Were You There When They Crucified My Lord
TTITLE14=Daddy Sang Bass (with John Schneider)
TTITLE15=Outro (Johnny Cash Band)
TTITLE16=Casey Jones
TTITLE17=Orange Blossom Special
TTITLE18=I Walk the Line
EXTD=
EXTT0=
EXTT1=
EXTT2=
EXTT3=
EXTT4=
EXTT5=
EXTT6=
EXTT7=
EXTT8=
EXTT9=
EXTT10=
EXTT11=
EXTT12=
EXTT13=
EXTT14=
EXTT15=
EXTT16=
EXTT17=
EXTT18=
PLAYORDER=
